<svg xmlns="http://www.w3.org/2000/svg" viewBox="0 0 362 310" width="362" height="310"><defs><linearGradient id="12982837951698673254" x1="-72.94141045751235" x2="-84.2069956450926" y1="-278.6026952849594" y2="209.14823537209134" gradientTransform="matrix(0.006640486,0,0,0.005549751,1.198175172,0.807593441)"><stop stop-color="#fe9602" /><stop offset="0.907043" stop-color="#362916" /><stop offset="1" stop-color="#211e19" /></linearGradient><linearGradient id="15766820870122243465" x1="1.1640990696988425" x2="-1.6509215634587342" y1="142.18843195639536" y2="-178.7239202235486" gradientTransform="matrix(0.018398255,0,0,0.007719679,0.484068134,0.239131496)"><stop stop-color="#fe9602" /><stop offset="1" stop-color="#211e19" /></linearGradient><linearGradient id="16795832544231678846" x1="1.1640990696987963" x2="-0.9471664051693338" y1="-105.53338376145612" y2="27.476341155231182" gradientTransform="matrix(0.031793971,0,0,0.014401894,0.474446307,1.552347202)"><stop stop-color="#fe9602" /><stop offset="1" stop-color="#211e19" /></linearGradient><linearGradient id="14386606648479223700" x1="48.23836025668091" x2="44.19197534562761" y1="-214.78208130256445" y2="167.95734000429988" gradientTransform="matrix(0.00733924,0,0,0.006552689,-0.273237278,0.85637341)"><stop stop-color="#fe9602" /><stop offset="1" stop-color="#211e19" /></linearGradient><linearGradient id="11220924377292089807" x1="-6.577207671484146" x2="5.386630019434797" y1="424.39425043042513" y2="-67.53060521383111" gradientTransform="matrix(0.018014439,0,0,0.013923741,0.496947429,-1.084586764)"><stop stop-color="#211e19" /><stop offset="1" stop-color="#fe9602" /></linearGradient><linearGradient id="15334035989849726645" x1="53.94573594140018" x2="58.872022049425624" y1="-68.23436037212046" y2="152.0410041724463" gradientTransform="matrix(0.017683239,0,0,0.016545982,-0.562332789,-0.213985098)"><stop stop-color="#211e19" /><stop offset="1" stop-color="#fe9602" /></linearGradient><linearGradient id="905830711141746283" x1="-48.80251716884501" x2="-53.025048118581125" y1="-100.60709765343066" y2="146.41096290613146" gradientTransform="matrix(0.017674504,0,0,0.016564074,1.539918745,-0.214359192)"><stop stop-color="#211e19" /><stop offset="1" stop-color="#fe9602" /></linearGradient></defs><g transform="matrix(1,0,0,1,-36.55771207,-5.289729605)">
<g>
	<g transform="matrix(1,0,0,1,217,160.5)">
		<g>
			<g>
				<g>
					<g>
						<path d="M-102.561083,-0.579011C-102.561083,-0.579011 -76.848179,27.705507 -76.848179,27.705507 C-76.848179,27.705507 -35.065955,-7.113557 -35.065955,-7.113557 C-35.065955,-7.113557 -29.843474,-45.849137 -29.843474,-45.849137 C-29.843474,-45.849137 -122.980668,-73.706089 -156.058946,-145.518865 C-155.204531,-130.143001 -154.350101,-103.520222 -154.318514,-102.532108 C-166.91334,-111.220788 -176.752203,-118.640597 -180.434858,-122.882125 C-176.952958,-102.862483 -170.859752,-68.043419 -170.859752,-68.043419 C-170.859752,-68.043419 -150.839037,-63.691663 -150.839037,-63.691663 C-150.839037,-63.691663 -166.072306,-48.894388 -166.072306,-48.894388 C-166.072306,-48.894388 -159.979108,-21.909423 -159.979108,-21.909423 C-159.979108,-21.909423 -139.958385,-29.743095 -139.958385,-29.743095 C-139.958385,-29.743095 -153.015939,4.639959 -153.015939,4.639959 C-153.015939,4.639959 -122.984322,-6.2408 -122.984322,-6.2408 C-122.984322,-6.2408 -140.829323,34.669405 -140.829323,34.669405 C-140.829323,34.669405 -102.561083,-0.579011 -102.561083,-0.579011 L -102.561083,-0.579011 Z" fill="url('#12982837951698673254')"/>
					</g>
					<g>
						<path d="M21.098047,-30.927334C21.098047,-30.927334 28.042435,18.585202 28.042435,18.585202 C28.042435,18.585202 0.834007,98.562193 0.834007,98.562193 C0.834007,98.562193 -26.310546,18.974365 -26.310546,18.974365 C-26.310546,18.974365 -19.394535,-30.97687 -19.394535,-30.97687 C-19.394535,-30.97687 1.235719,-19.043684 1.235719,-19.043684 C1.235719,-19.043684 21.098047,-30.927334 21.098047,-30.927334 Z" fill="url('#15766820870122243465')"/>
					</g>
					<g>
						<path d="" fill="#fe9602"/>
					</g>
					<g>
						<path d="M0.842675,-107.787709C0.842675,-107.787709 -14.922524,-49.290939 -14.922524,-49.290939 C-14.922524,-49.290939 0.835244,-38.352399 0.835244,-38.352399 C0.835244,-38.352399 16.529979,-49.318464 16.529979,-49.318464 C16.529979,-49.318464 0.842675,-107.787709 0.842675,-107.787709 Z" fill="url('#16795832544231678846')"/>
					</g>
					<g>
						<path d="M102.662112,-8.203869C102.483437,-7.797471 102.390911,-7.585483 102.390911,-7.585483 C102.390911,-7.585483 128.354787,16.129049 128.354787,16.129049 C128.354787,16.129049 112.779376,-14.322877 112.779376,-14.322877 C112.779376,-14.322877 144.82878,-2.76534 144.82878,-2.76534 C144.82878,-2.76534 131.449901,-37.486309 131.449901,-37.486309 C131.449901,-37.486309 157.307539,-27.202544 157.307539,-27.202544 C157.307539,-27.202544 161.103088,-45.074329 161.103088,-45.074329 C161.103088,-45.074329 140.668839,-64.990668 140.668839,-64.990668 C140.668839,-64.990668 167.293315,-70.833663 167.293315,-70.833663 C167.293315,-70.833663 170.00238,-86.757278 173.483542,-106.776919 C169.042974,-103.462484 163.805939,-99.815004 152.499268,-91.600878 C150.316618,-90.015216 142.875548,-86.291881 141.391596,-84.835018 C141.364328,-84.808247 141.337141,-84.781469 141.310036,-84.754681 C141.310036,-84.754681 150.083089,-102.131666 150.083089,-102.131666 C150.083089,-102.131666 151.569633,-115.022181 152.440341,-130.690386 C133.290094,-107.22439 125.037285,-97.56449 105.442627,-82.162989 C92.322928,-71.85084 79.627942,-63.220854 68.851237,-56.968853 C65.170398,-54.83345 62.733016,-53.375421 59.858433,-51.81298 C45.67978,-44.10636 37.229644,-40.401126 37.229644,-40.401126 C37.229644,-40.401126 41.649492,-7.841581 41.649492,-7.841581 C41.649492,-7.841581 77.450258,21.918726 77.450258,21.918726 C77.450258,21.918726 99.750322,-2.436421 99.750322,-2.436421 C99.750322,-2.436421 102.662112,-8.203869 102.662112,-8.203869 L 102.662112,-8.203869 Z" fill="url('#14386606648479223700')"/>
					</g>
					<g>
						<path d="M-27.586061,139.499148C-27.586061,139.499148 -17.838535,77.894779 -17.838535,77.894779 C-17.838535,77.894779 -4.269977,117.898629 -4.269977,117.898629 C-4.269977,117.898629 5.963237,117.896122 5.963237,117.896122 C5.963237,117.896122 18.812166,80.156205 18.812166,80.156205 C18.812166,80.156205 27.924964,139.614506 27.924964,139.614506 C27.924964,139.614506 0.096915,149.714556 0.096915,149.714556 C0.096915,149.714556 -27.586061,139.499148 -27.586061,139.499148 Z" fill="url('#11220924377292089807')"/>
					</g>
				</g>
				<g>
					<path d="M88.351052,52.602096C88.351052,52.602096 42.355954,12.932753 42.355954,12.932753 C42.355954,12.932753 43.308628,20.782787 43.308628,20.782787 C43.308628,20.782787 31.800327,54.912765 31.800327,54.912765 L 32.105183,58.241926 L 33.362712,59.308921 L 33.362712,58.356247 L 40.298179,57.174931 C40.298179,57.174931 40.183858,53.326128 40.183858,53.326128 C40.183858,53.326128 51.311089,51.839957 51.311089,51.839957 C51.311089,51.839957 56.760384,73.370388 56.760384,73.370388 C56.760384,73.370388 88.351052,52.602096 88.351052,52.602096 Z" fill="url('#15334035989849726645')"/>
				</g>
				<g>
					<path d="M-87.126559,52.556467C-87.126559,52.556467 -41.139111,12.941212 -41.139111,12.941212 L -41.662853,17.072954 L -42.099304,20.695502 C-42.099304,20.695502 -30.547886,54.950872 -30.547886,54.950872 C-30.547886,54.950872 -32.22095,59.83066 -32.22095,59.83066 L -32.148208,58.30308 L -33.767961,58.012112 L -36.64366,57.502918 L -39.000498,56.717305 L -39.000498,53.211144 C-39.000498,53.211144 -50.056967,51.794987 -50.056967,51.794987 C-50.056967,51.794987 -55.544258,73.312835 -55.544258,73.312835 C-55.544258,73.312835 -87.126559,52.556467 -87.126559,52.556467 Z" transform="matrix(1,0,0,1,0,0)" fill="url('#905830711141746283')" stroke="#ff9602" stroke-width="0.247999906539917" stroke-miterlimit="15"/>
				</g>
			</g>
			<g>
				<g>
					<g>
						<path d="M-154.325041,-100.506884C-154.325041,-100.506884 -157.556941,-139.542074 -158.427559,-155.21027 C-125.349282,-83.397502 -29.849511,-43.857578 -29.849511,-43.857578 C-29.849511,-43.857578 -35.071992,-5.122014 -35.071992,-5.122014 C-35.071992,-5.122014 -76.854216,29.697049 -76.854216,29.697049 C-76.854216,29.697049 -102.968243,0.971306 -102.968243,0.971306 " transform="matrix(1,0,0,1,0,0)" fill="none" stroke="#34b4de" stroke-opacity="0.8" stroke-width="11.239999771118164"/>
					</g>
				</g>
				<g>
					<g>
						<path d="M-58.146552,-39.498629C-58.146552,-39.498629 -166.08425,-104.34822 -180.442288,-120.885208 C-176.960388,-100.865566 -170.867182,-66.046503 -170.867182,-66.046503 C-170.867182,-66.046503 -150.846467,-61.694746 -150.846467,-61.694746 C-150.846467,-61.694746 -166.079736,-46.897471 -166.079736,-46.897471 C-166.079736,-46.897471 -159.986538,-19.912506 -159.986538,-19.912506 C-159.986538,-19.912506 -139.965815,-27.746178 -139.965815,-27.746178 C-139.965815,-27.746178 -153.02337,6.636876 -153.02337,6.636876 C-153.02337,6.636876 -122.991752,-4.243883 -122.991752,-4.243883 C-122.991752,-4.243883 -148.183298,44.18041 -148.183298,44.18041 C-148.183298,44.18041 -58.146552,-39.498629 -58.146552,-39.498629 Z" transform="matrix(1,0,0,1,0,0)" fill="none" stroke="#34b4de" stroke-opacity="0.8" stroke-width="11.239999771118164"/>
					</g>
				</g>
				<g>
					<g>
						<path d="M25.424352,-39.938915C25.424352,-39.938915 33.694214,19.251235 33.694214,19.251235 C33.694214,19.251235 1.921828,112.394853 1.921828,112.394853 C1.921828,112.394853 -0.254862,112.394853 -0.254862,112.394853 C-0.254862,112.394853 -32.0262,19.251235 -32.0262,19.251235 C-32.0262,19.251235 -23.757173,-39.938915 -23.757173,-39.938915 C-23.757173,-39.938915 1.052069,-25.431614 1.052069,-25.431614 C1.052069,-25.431614 25.424352,-39.938915 25.424352,-39.938915 Z" transform="matrix(1,0,0,1,0,0)" fill="none" stroke="#34b4de" stroke-opacity="0.8" stroke-width="11.239999771118164"/>
					</g>
				</g>
				<g>
					<g>
						<path d="M-19.840542,54.950872C-19.840542,54.950872 -33.767961,143.305986 -33.767961,143.305986 C-33.767961,143.305986 0.180165,155.492628 0.180165,155.492628 C0.180165,155.492628 34.128291,143.305986 34.128291,143.305986 C34.128291,143.305986 20.926839,56.842028 20.926839,56.842028 " transform="matrix(1,0,0,1,0,0)" fill="none" stroke="#34b4de" stroke-opacity="0.8" stroke-width="11.239999771118164"/>
					</g>
				</g>
				<g>
					<g>
						<path d="M0.61724,-128.728974C0.61724,-128.728974 -21.361185,-46.907467 -21.361185,-46.907467 C-21.361185,-46.907467 0.835244,-31.674182 0.835244,-31.674182 C0.835244,-31.674182 23.031674,-46.907467 23.031674,-46.907467 C23.031674,-46.907467 0.61724,-128.728974 0.61724,-128.728974 Z" transform="matrix(1,0,0,1,0,0)" fill="none" stroke="#34b4de" stroke-opacity="0.8" stroke-width="11.239999771118164"/>
					</g>
				</g>
				<g>
					<g>
						<path d="M155.559544,-100.506884C155.559544,-100.506884 158.908698,-139.423944 159.779308,-155.092141 C126.70212,-83.279373 31.083138,-43.857578 31.083138,-43.857578 C31.083138,-43.857578 36.306373,-5.122014 36.306373,-5.122014 C36.306373,-5.122014 78.088613,29.697049 78.088613,29.697049 C78.088613,29.697049 104.201543,0.971306 104.201543,0.971306 " transform="matrix(1,0,0,1,0,0)" fill="none" stroke="#34b4de" stroke-opacity="0.8" stroke-width="11.239999771118164"/>
					</g>
				</g>
				<g>
					<g>
						<path d="M59.370315,-39.498629C59.370315,-39.498629 167.308013,-104.34822 181.66605,-120.885208 C178.184888,-100.865566 172.091797,-66.046503 172.091797,-66.046503 C172.091797,-66.046503 152.069992,-61.694746 152.069992,-61.694746 C152.069992,-61.694746 167.303294,-46.897471 167.303294,-46.897471 C167.303294,-46.897471 161.21017,-19.912506 161.21017,-19.912506 C161.21017,-19.912506 141.190528,-27.746178 141.190528,-27.746178 C141.190528,-27.746178 154.247025,6.636876 154.247025,6.636876 C154.247025,6.636876 124.216465,-4.243883 124.216465,-4.243883 C124.216465,-4.243883 147.569497,41.258319 147.569497,41.258319 C147.569497,41.258319 59.370315,-39.498629 59.370315,-39.498629 Z" transform="matrix(1,0,0,1,0,0)" fill="none" stroke="#34b4de" stroke-opacity="0.8" stroke-width="11.239999771118164"/>
					</g>
				</g>
				<g>
					<g>
						<path d="M97.665592,53.20041C97.665592,53.20041 34.990642,-0.768423 34.990642,-0.768423 C34.990642,-0.768423 37.602669,20.124303 37.602669,20.124303 C37.602669,20.124303 25.416061,56.248151 25.416061,56.248151 C25.416061,56.248151 33.284849,90.713891 33.284849,90.713891 C33.284849,90.713891 32.177128,61.459785 32.177128,61.459785 C32.177128,61.459785 40.415659,87.060475 40.415659,87.060475 C40.415659,87.060475 38.938063,58.038334 38.938063,58.038334 C38.938063,58.038334 45.834777,81.236743 45.834777,81.236743 C45.834777,81.236743 45.834777,53.202573 45.834777,53.202573 C45.834777,53.202573 53.269817,82.364325 53.269817,82.364325 C53.269817,82.364325 97.665592,53.20041 97.665592,53.20041 Z" transform="matrix(1,0,0,1,0,0)" fill="none" stroke="#34b4de" stroke-opacity="0.8" stroke-width="11.239999771118164"/>
					</g>
				</g>
				<g>
					<g>
						<path d="M-96.44183,53.168194C-96.44183,53.168194 -33.766879,-0.800639 -33.766879,-0.800639 C-33.766879,-0.800639 -36.378923,20.092087 -36.378923,20.092087 C-36.378923,20.092087 -24.192315,56.215936 -24.192315,56.215936 C-24.192315,56.215936 -32.061103,90.681675 -32.061103,90.681675 C-32.061103,90.681675 -30.953365,61.427569 -30.953365,61.427569 C-30.953365,61.427569 -39.191897,87.028259 -39.191897,87.028259 C-39.191897,87.028259 -37.714317,58.006119 -37.714317,58.006119 C-37.714317,58.006119 -44.611015,81.204528 -44.611015,81.204528 C-44.611015,81.204528 -44.611015,53.170357 -44.611015,53.170357 C-44.611015,53.170357 -52.046055,82.33211 -52.046055,82.33211 C-52.046055,82.33211 -96.44183,53.168194 -96.44183,53.168194 Z" transform="matrix(1,0,0,1,0,0)" fill="none" stroke="#34b4de" stroke-opacity="0.8" stroke-width="11.239999771118164"/>
					</g>
				</g>
			</g>
			<g>
				<g>
					<g>
						<path d="M-154.317611,-102.503801C-154.317611,-102.503801 -155.188286,-129.85066 -156.058946,-145.518865 C-122.980668,-73.706089 -29.843474,-45.849137 -29.843474,-45.849137 C-29.843474,-45.849137 -35.065955,-7.113557 -35.065955,-7.113557 C-35.065955,-7.113557 -76.848179,27.705507 -76.848179,27.705507 C-76.848179,27.705507 -102.962206,-1.020252 -102.962206,-1.020252 " transform="matrix(1,0,0,1,0,0)" fill="none" stroke="#02ffff" stroke-width="2.247999906539917" stroke-miterlimit="5.400000095367432"/>
					</g>
					<g>
						<path d="M-58.139122,-41.495545C-58.139122,-41.495545 -166.07682,-106.345137 -180.434858,-122.882125 C-176.952958,-102.862483 -170.859752,-68.043419 -170.859752,-68.043419 C-170.859752,-68.043419 -150.839037,-63.691663 -150.839037,-63.691663 C-150.839037,-63.691663 -166.072306,-48.894388 -166.072306,-48.894388 C-166.072306,-48.894388 -159.979108,-21.909423 -159.979108,-21.909423 C-159.979108,-21.909423 -139.958385,-29.743095 -139.958385,-29.743095 C-139.958385,-29.743095 -153.015939,4.639959 -153.015939,4.639959 C-153.015939,4.639959 -122.984322,-6.2408 -122.984322,-6.2408 C-122.984322,-6.2408 -140.829323,34.669405 -140.829323,34.669405 C-140.829323,34.669405 -58.139122,-41.495545 -58.139122,-41.495545 Z" transform="matrix(1,0,0,1,0,0)" fill="none" stroke="#02ffff" stroke-width="2.247999906539917" stroke-miterlimit="5.400000095367432"/>
					</g>
					<g>
						<path d="M25.431782,-41.935832C25.431782,-41.935832 33.701645,17.254318 33.701645,17.254318 C33.701645,17.254318 1.929258,110.397936 1.929258,110.397936 C1.929258,110.397936 -0.247432,110.397936 -0.247432,110.397936 C-0.247432,110.397936 -32.01877,17.254318 -32.01877,17.254318 C-32.01877,17.254318 -23.749743,-41.935832 -23.749743,-41.935832 C-23.749743,-41.935832 1.0595,-27.428531 1.0595,-27.428531 C1.0595,-27.428531 25.431782,-41.935832 25.431782,-41.935832 Z" transform="matrix(1,0,0,1,0,0)" fill="none" stroke="#02ffff" stroke-width="2.247999906539917" stroke-miterlimit="5.400000095367432"/>
					</g>
					<g>
						<path d="M-19.833112,52.953955C-19.833112,52.953955 -33.760531,141.30907 -33.760531,141.30907 C-33.760531,141.30907 0.187595,153.495711 0.187595,153.495711 C0.187595,153.495711 34.135721,141.30907 34.135721,141.30907 C34.135721,141.30907 20.934269,54.845111 20.934269,54.845111 " transform="matrix(1,0,0,1,0,0)" fill="none" stroke="#02ffff" stroke-width="2.247999906539917" stroke-miterlimit="5.400000095367432"/>
					</g>
					<g>
						<path d="M0.62467,-130.725891C0.62467,-130.725891 -21.353755,-48.904384 -21.353755,-48.904384 C-21.353755,-48.904384 0.842675,-33.671099 0.842675,-33.671099 C0.842675,-33.671099 23.039104,-48.904384 23.039104,-48.904384 C23.039104,-48.904384 0.62467,-130.725891 0.62467,-130.725891 Z" transform="matrix(1,0,0,1,0,0)" fill="none" stroke="#02ffff" stroke-width="2.247999906539917" stroke-miterlimit="5.400000095367432"/>
					</g>
					<g>
						<path d="M155.566974,-102.503801C155.566974,-102.503801 156.436831,-129.85066 157.307539,-145.518865 C124.230351,-73.706089 31.092075,-45.849137 31.092075,-45.849137 C31.092075,-45.849137 36.31531,-7.113557 36.31531,-7.113557 C36.31531,-7.113557 78.097551,27.705507 78.097551,27.705507 C78.097551,27.705507 104.21048,-1.020252 104.21048,-1.020252 " transform="matrix(1,0,0,1,0,0)" fill="none" stroke="#02ffff" stroke-width="2.247999906539917" stroke-miterlimit="5.400000095367432"/>
					</g>
					<g>
						<path d="M59.377745,-41.495545C59.377745,-41.495545 167.315443,-106.345137 181.67348,-122.882125 C178.192318,-102.862483 172.099227,-68.043419 172.099227,-68.043419 C172.099227,-68.043419 152.077422,-63.691663 152.077422,-63.691663 C152.077422,-63.691663 167.310724,-48.894388 167.310724,-48.894388 C167.310724,-48.894388 161.2176,-21.909423 161.2176,-21.909423 C161.2176,-21.909423 141.197958,-29.743095 141.197958,-29.743095 C141.197958,-29.743095 154.254456,4.639959 154.254456,4.639959 C154.254456,4.639959 124.223895,-6.2408 124.223895,-6.2408 C124.223895,-6.2408 142.066766,34.669405 142.066766,34.669405 C142.066766,34.669405 59.377745,-41.495545 59.377745,-41.495545 Z" transform="matrix(1,0,0,1,0,0)" fill="none" stroke="#02ffff" stroke-width="2.247999906539917" stroke-miterlimit="5.400000095367432"/>
					</g>
				</g>
				<g>
					<path d="M97.673022,51.203493C97.673022,51.203493 34.998072,-2.76534 34.998072,-2.76534 C34.998072,-2.76534 37.610099,18.127386 37.610099,18.127386 C37.610099,18.127386 25.423491,54.251235 25.423491,54.251235 C25.423491,54.251235 33.292279,88.716974 33.292279,88.716974 C33.292279,88.716974 32.184558,59.462868 32.184558,59.462868 C32.184558,59.462868 40.423089,85.063558 40.423089,85.063558 C40.423089,85.063558 38.945493,56.041417 38.945493,56.041417 C38.945493,56.041417 45.842207,79.239827 45.842207,79.239827 C45.842207,79.239827 45.842207,51.205656 45.842207,51.205656 C45.842207,51.205656 53.277247,80.367409 53.277247,80.367409 C53.277247,80.367409 97.673022,51.203493 97.673022,51.203493 Z" transform="matrix(1,0,0,1,0,0)" fill="none" stroke="#02ffff" stroke-width="2.247999906539917" stroke-miterlimit="15"/>
				</g>
				<g>
					<path d="M-96.4344,51.171277C-96.4344,51.171277 -33.759449,-2.797555 -33.759449,-2.797555 C-33.759449,-2.797555 -36.371493,18.095171 -36.371493,18.095171 C-36.371493,18.095171 -24.184884,54.219019 -24.184884,54.219019 C-24.184884,54.219019 -32.053673,88.684759 -32.053673,88.684759 C-32.053673,88.684759 -30.945935,59.430652 -30.945935,59.430652 C-30.945935,59.430652 -39.184466,85.031342 -39.184466,85.031342 C-39.184466,85.031342 -37.706887,56.009202 -37.706887,56.009202 C-37.706887,56.009202 -44.603584,79.207611 -44.603584,79.207611 C-44.603584,79.207611 -44.603584,51.17344 -44.603584,51.17344 C-44.603584,51.17344 -52.038625,80.335193 -52.038625,80.335193 C-52.038625,80.335193 -96.4344,51.171277 -96.4344,51.171277 Z" transform="matrix(1,0,0,1,0,0)" fill="none" stroke="#02ffff" stroke-width="2.247999906539917" stroke-miterlimit="15"/>
				</g>
			</g>
		</g>
	</g>
</g></g></svg>