<?xml version="1.0" encoding="UTF-8"?>
<svg enable-background="new 0 0 500 500" version="1.1" viewBox="0 0 500 500" xml:space="preserve" xmlns="http://www.w3.org/2000/svg" xmlns:xlink="http://www.w3.org/1999/xlink"><defs><filter id="filter6" x="-.34853" y="-.43453" width="1.6978" height="1.7146" color-interpolation-filters="sRGB"><feGaussianBlur stdDeviation="1.5437188"/></filter>




	
	
	
	
	
	
	
	
	
<linearGradient id="linearGradient19" x1="250.84" x2="250.84" y1="206.1" y2="360.4" gradientUnits="userSpaceOnUse"><stop stop-color="#8a570e" offset="0"/><stop stop-color="#da8306" offset="1"/></linearGradient><linearGradient id="linearGradient22" x1="250.19" x2="250.18" y1="302.77" y2="405.49" gradientUnits="userSpaceOnUse"><stop stop-color="#b5720f" stop-opacity=".97255" offset=".35521"/><stop stop-color="#6c4207" offset="1"/></linearGradient><linearGradient id="linearGradient24" x1="274.17" x2="349.67" y1="244.28" y2="351.56" gradientUnits="userSpaceOnUse"><stop stop-color="#764c10" stop-opacity=".99608" offset="0"/><stop stop-color="#b6700c" offset=".6369"/></linearGradient><linearGradient id="linearGradient26" x1="154.88" x2="216.23" y1="302.03" y2="249.2" gradientUnits="userSpaceOnUse"><stop stop-color="#d6810c" offset="0"/><stop stop-color="#8c580e" offset="1"/></linearGradient><linearGradient id="linearGradient28" x1="250.62" x2="250.84" y1="121.27" y2="216.33" gradientUnits="userSpaceOnUse"><stop stop-color="#ee940d" stop-opacity=".98039" offset="0"/><stop stop-color="#935c0d" offset="1"/></linearGradient><linearGradient id="linearGradient30" x1="407.31" x2="328.1" y1="104.48" y2="277.71" gradientUnits="userSpaceOnUse"><stop stop-color="#ca7a07" offset="0"/><stop stop-color="#85540f" offset="1"/></linearGradient><linearGradient id="linearGradient32" x1="431.67" x2="339.33" y1="127.12" y2="236.09" gradientUnits="userSpaceOnUse"><stop stop-color="#bb7209" offset="0"/><stop stop-color="#7e510f" offset="1"/></linearGradient><linearGradient id="linearGradient34" x1="67.633" x2="151.56" y1="123.05" y2="244.24" gradientUnits="userSpaceOnUse"><stop stop-color="#c67c14" offset=".18565"/><stop stop-color="#734c0f" offset=".90788"/></linearGradient><linearGradient id="linearGradient36" x1="93.941" x2="214.92" y1="104.48" y2="244.88" gradientUnits="userSpaceOnUse"><stop stop-color="#d57e0f" offset="0"/><stop stop-color="#73490c" offset="1"/></linearGradient></defs><g transform="matrix(1.0739 0 0 1.0739 -15.484 -12.612)" clip-rule="evenodd" fill="none" filter="url(#filter6)" stop-color="#000000" stroke="#34b4de" stroke-opacity=".8" stroke-width="18.624" style="font-variation-settings:normal"><g stroke-miterlimit="8.1"><path d="m103.51 150.95s-.80388-27.324-1.6146-41.914c30.802 66.871 117.52 94.666 117.52 94.666l-4.8631 36.07-38.907 32.423-24.317-26.749" filter="url(#filter6)" stop-color="#000000" style="font-variation-settings:normal"/><path d="m193.07 207.76s-100.51-60.387-113.88-75.786c3.2423 18.642 8.9162 51.065 8.9162 51.065l18.643 4.0523-14.185 13.779 5.6739 25.128 18.643-7.2946-12.159 32.017 27.965-10.132-16.61 36.236z" filter="url(#filter6)" stop-color="#000000" style="font-variation-settings:normal"/><path d="m270.89 207.35 7.7008 55.117-29.586 86.734h-2.0269l-29.585-86.734 7.7-55.117 23.102 13.509z" filter="url(#filter6)" stop-color="#000000" style="font-variation-settings:normal"/><path d="m228.74 295.71-12.969 82.275 31.612 11.348 31.612-11.348-12.293-80.514" filter="url(#filter6)" stop-color="#000000" style="font-variation-settings:normal"/><path d="m247.79 124.67-20.466 76.191 20.669 14.185 20.669-14.185z" filter="url(#filter6)" stop-color="#000000" style="font-variation-settings:normal"/><path d="m392.07 150.95s.81702-27.324 1.6277-41.914c-30.801 66.871-117.54 94.666-117.54 94.666l4.8638 36.07 38.907 32.423 24.316-26.749" filter="url(#filter6)" stop-color="#000000" style="font-variation-settings:normal"/><path d="m302.5 207.76s100.51-60.387 113.88-75.786c-3.2416 18.642-8.9154 51.065-8.9154 51.065l-18.644 4.0523 14.185 13.779-5.6738 25.128-18.642-7.2946 12.158 32.017-27.964-10.132 16.622 36.236z" filter="url(#filter6)" stop-color="#000000" style="font-variation-settings:normal"/></g><path d="m338.16 294.08-58.362-50.255 2.4323 19.455-11.348 33.638 7.3273 32.094-1.0315-27.241 7.6785 21.98-1.3828-25.166 6.4221 21.602v-26.105l6.9234 27.155z" filter="url(#filter6)" stop-color="#000000" stroke-miterlimit="5.3" style="font-variation-settings:normal;paint-order:normal"/><path d="m157.41 294.05 58.362-50.255-2.4323 19.455 11.348 33.638-7.3273 32.094 1.0315-27.241-7.6716 23.839 1.3759-27.025-6.4221 21.602v-26.105l-6.9234 27.155z" filter="url(#filter6)" stop-color="#000000" stroke-miterlimit="6.9" style="font-variation-settings:normal;paint-order:normal"/></g><g clip-rule="evenodd" stroke="#33b4de" stroke-width="8"><g stroke-miterlimit="5.4"><path d="m230.17 302.95-13.927 88.355 33.948 12.187 33.948-12.187-13.201-86.464" fill="url(#linearGradient22)"/><path d="m95.682 147.5s-.87068-27.347-1.7413-43.015c33.078 71.813 126.22 99.67 126.22 99.67l-5.2225 38.736-41.782 34.819-26.114-28.726" fill="url(#linearGradient36)"/><path d="m191.86 208.5s-107.94-64.85-122.3-81.387c3.4819 20.02 9.5751 54.839 9.5751 54.839l20.021 4.3518-15.233 14.797 6.0932 26.985 20.021-7.8337-13.058 34.383 30.032-10.881-17.845 40.91z" fill="url(#linearGradient34)"/><path d="m275.43 208.06 8.2699 59.19-31.772 93.144h-2.1767l-31.771-93.144 8.269-59.19 24.809 14.507z" fill="url(#linearGradient19)"/><path d="m250.62 119.27-21.978 81.822 22.196 15.233 22.196-15.233z" fill="url(#linearGradient28)"/><path d="m405.57 147.5s.86987-27.347 1.7406-43.015c-33.077 71.813-126.22 99.67-126.22 99.67l5.2232 38.736 41.782 34.819 26.113-28.726" fill="url(#linearGradient30)"/><path d="m309.38 208.5s107.94-64.85 122.3-81.387c-3.4812 20.02-9.5742 54.839-9.5742 54.839l-20.022 4.3518 15.233 14.797-6.0931 26.985-20.02-7.8337 13.056 34.383-30.031-10.881 17.843 40.91z" fill="url(#linearGradient32)"/></g><path d="m347.67 301.2-62.675-53.969 2.612 20.893-12.187 36.124 7.8688 34.466-1.1077-29.254 8.2385 25.601-1.4776-29.022 6.8967 23.198v-28.034l7.435 29.162z" fill="url(#linearGradient24)" stroke-miterlimit="15" style="paint-order:normal"/><path d="m153.57 301.17 62.675-53.969-2.612 20.893 12.187 36.124-7.8688 34.466 1.1077-29.254-8.2385 25.601 1.4776-29.022-6.8967 23.198v-28.034l-7.435 29.162z" fill="url(#linearGradient26)" stroke-miterlimit="15" style="paint-order:normal"/></g><g clip-rule="evenodd" fill="none" stroke="#02ffff" stroke-opacity=".96078" stroke-width="2.4141"><g stroke-miterlimit="5.4"><path d="m230.17 302.95-13.927 88.355 33.948 12.187 33.948-12.187-13.201-86.464"/><path d="m95.682 147.5s-.87068-27.347-1.7413-43.015c33.078 71.813 126.22 99.67 126.22 99.67l-5.2225 38.736-41.782 34.819-26.114-28.726"/><path d="m191.86 208.5s-107.94-64.85-122.3-81.387c3.4819 20.02 9.5751 54.839 9.5751 54.839l20.021 4.3518-15.233 14.797 6.0932 26.985 20.021-7.8337-13.058 34.383 30.032-10.881-17.845 40.91z"/><path d="m275.43 208.06 8.2699 59.19-31.772 93.144h-2.1767l-31.771-93.144 8.269-59.19 24.809 14.507z"/><path d="m250.62 119.27-21.978 81.822 22.196 15.233 22.196-15.233z"/><path d="m405.57 147.5s.86987-27.347 1.7406-43.015c-33.077 71.813-126.22 99.67-126.22 99.67l5.2232 38.736 41.782 34.819 26.113-28.726"/><path d="m309.38 208.5s107.94-64.85 122.3-81.387c-3.4812 20.02-9.5742 54.839-9.5742 54.839l-20.022 4.3518 15.233 14.797-6.0931 26.985-20.02-7.8337 13.056 34.383-30.031-10.881 17.843 40.91z"/></g><path d="m347.67 301.2-62.675-53.969 2.612 20.893-12.187 36.124 7.8688 34.466-1.1077-29.254 8.2385 25.601-1.4776-29.022 6.8967 23.198v-28.034l7.435 29.162z" stroke-miterlimit="15" style="paint-order:normal"/><path d="m153.57 301.17 62.675-53.969-2.612 20.893 12.187 36.124-7.8688 34.466 1.1077-29.254-8.2385 25.601 1.4776-29.022-6.8967 23.198v-28.034l-7.435 29.162z" stroke-miterlimit="15" style="paint-order:normal"/></g></svg>
